<?xml version="1.0" encoding="UTF-8"?>
<!DOCTYPE svg PUBLIC "-//W3C//DTD SVG 1.1//EN" "http://www.w3.org/Graphics/SVG/1.1/DTD/svg11.dtd">
<svg xmlns="http://www.w3.org/2000/svg" version="1.1" width="200px" height="200px" style="shape-rendering:geometricPrecision; text-rendering:geometricPrecision; image-rendering:optimizeQuality; fill-rule:evenodd; clip-rule:evenodd" xmlns:xlink="http://www.w3.org/1999/xlink">
<g><path style="opacity:1" fill="#7fc1f7" d="M -0.5,-0.5 C 12.1667,-0.5 24.8333,-0.5 37.5,-0.5C 39.4346,0.809964 41.4346,2.1433 43.5,3.5C 42.0791,6.4283 43.0791,7.76164 46.5,7.5C 46.2852,5.82124 46.9519,4.82124 48.5,4.5C 48.8417,5.33825 49.5084,5.67158 50.5,5.5C 58.2016,7.00875 65.8683,8.67542 73.5,10.5C 74.6085,11.29 75.9419,11.79 77.5,12C 74.2797,16.3678 72.2797,21.2012 71.5,26.5C 70.209,26.2627 69.209,26.596 68.5,27.5C 67.391,27.5569 66.391,27.8902 65.5,28.5C 63.1155,28.4433 60.7822,28.7766 58.5,29.5C 55.7192,28.6068 53.2192,27.9401 51,27.5C 49.513,28.2529 49.3463,29.0862 50.5,30C 48.5594,30.7429 46.7261,30.5762 45,29.5C 44.3333,30.1667 43.6667,30.8333 43,31.5C 41.0902,28.0294 38.7568,27.0294 36,28.5C 35,27.5 34,26.5 33,25.5C 29.3333,25.8333 25.6667,26.1667 22,26.5C 20.4943,23.526 18.8276,23.1927 17,25.5C 15.6667,22.8333 14.3333,22.8333 13,25.5C 11.6667,24.1667 10.3333,22.8333 9,21.5C 8.33333,22.1667 7.66667,22.8333 7,23.5C 5.66667,22.1667 4.33333,20.8333 3,19.5C 1.85516,19.6191 0.688495,19.9524 -0.5,20.5C -0.5,13.5 -0.5,6.5 -0.5,-0.5 Z"/></g>
<g><path style="opacity:1" fill="#5776ce" d="M 48.5,-0.5 C 62.5,-0.5 76.5,-0.5 90.5,-0.5C 90.5,-0.166667 90.5,0.166667 90.5,0.5C 89.0222,0.237978 87.6888,0.571312 86.5,1.5C 85.0527,3.40318 83.386,5.06985 81.5,6.5C 79.2155,5.584 78.0488,6.584 78,9.5C 75.9592,8.57692 73.7925,8.24358 71.5,8.5C 64.5882,6.68855 57.5882,5.35522 50.5,4.5C 49.4975,2.98906 48.8308,1.32239 48.5,-0.5 Z"/></g>
<g><path style="opacity:1" fill="#5b76cd" d="M 112.5,-0.5 C 116.5,-0.5 120.5,-0.5 124.5,-0.5C 126.202,1.53677 128.202,3.20343 130.5,4.5C 131.833,5.83333 133.167,7.16667 134.5,8.5C 134.821,10.0481 135.821,10.7148 137.5,10.5C 140.738,12.2753 143.738,14.2753 146.5,16.5C 137.833,16.5 129.167,16.5 120.5,16.5C 117.713,15.5233 114.713,15.19 111.5,15.5C 111.218,10.0735 111.551,4.74012 112.5,-0.5 Z"/></g>
<g><path style="opacity:1" fill="#d07099" d="M 124.5,-0.5 C 128.5,-0.5 132.5,-0.5 136.5,-0.5C 136.5,-0.166667 136.5,0.166667 136.5,0.5C 133.828,0.947671 131.828,2.281 130.5,4.5C 128.202,3.20343 126.202,1.53677 124.5,-0.5 Z"/></g>
<g><path style="opacity:1" fill="#5c76ce" d="M 136.5,-0.5 C 144.5,-0.5 152.5,-0.5 160.5,-0.5C 160.047,0.458367 159.381,1.2917 158.5,2C 160.389,5.83623 161.055,10.0029 160.5,14.5C 151.772,10.8126 143.772,6.14591 136.5,0.5C 136.5,0.166667 136.5,-0.166667 136.5,-0.5 Z"/></g>
<g><path style="opacity:1" fill="#f5516d" d="M 170.5,-0.5 C 173.167,-0.5 175.833,-0.5 178.5,-0.5C 178.5,0.5 178.5,1.5 178.5,2.5C 177.167,2.5 175.833,2.5 174.5,2.5C 173.552,1.02211 172.219,0.0221067 170.5,-0.5 Z"/></g>
<g><path style="opacity:1" fill="#c888a8" d="M 178.5,-0.5 C 180.833,-0.5 183.167,-0.5 185.5,-0.5C 186.9,0.100078 187.9,1.10008 188.5,2.5C 185.68,2.08699 183.68,3.08699 182.5,5.5C 179.189,5.69283 176.522,4.69283 174.5,2.5C 175.833,2.5 177.167,2.5 178.5,2.5C 178.5,1.5 178.5,0.5 178.5,-0.5 Z"/></g>
<g><path style="opacity:1" fill="#5776d1" d="M 185.5,-0.5 C 190.167,-0.5 194.833,-0.5 199.5,-0.5C 199.5,1.5 199.5,3.5 199.5,5.5C 197.094,4.93631 194.76,4.60298 192.5,4.5C 191.167,3.83333 189.833,3.16667 188.5,2.5C 187.9,1.10008 186.9,0.100078 185.5,-0.5 Z"/></g>
<g><path style="opacity:1" fill="#465380" d="M 40.5,-0.5 C 43.1667,-0.5 45.8333,-0.5 48.5,-0.5C 48.8308,1.32239 49.4975,2.98906 50.5,4.5C 50.5,4.83333 50.5,5.16667 50.5,5.5C 49.5084,5.67158 48.8417,5.33825 48.5,4.5C 48.9382,4.56544 49.2716,4.39877 49.5,4C 46.4919,2.34809 43.4919,0.848087 40.5,-0.5 Z"/></g>
<g><path style="opacity:1" fill="#373f60" d="M 160.5,-0.5 C 161.833,-0.5 163.167,-0.5 164.5,-0.5C 165.164,4.47255 165.497,9.47255 165.5,14.5C 164.065,15.0965 162.398,15.0965 160.5,14.5C 161.055,10.0029 160.389,5.83623 158.5,2C 159.381,1.2917 160.047,0.458367 160.5,-0.5 Z"/></g>
<g><path style="opacity:1" fill="#ced1e7" d="M 90.5,-0.5 C 92.8333,-0.5 95.1667,-0.5 97.5,-0.5C 94.3218,5.05866 95.9885,7.22533 102.5,6C 103.856,3.58595 103.522,1.41928 101.5,-0.5C 103.167,-0.5 104.833,-0.5 106.5,-0.5C 106.628,6.70513 104.628,13.2051 100.5,19C 88.5491,21.3131 77.5491,25.8131 67.5,32.5C 66.3482,30.6029 66.6815,28.9362 68.5,27.5C 70.1439,27.7135 71.6439,27.3802 73,26.5C 75.9185,15.7697 81.7519,7.10303 90.5,0.5C 90.5,0.166667 90.5,-0.166667 90.5,-0.5 Z"/></g>
<g><path style="opacity:1" fill="#8c91ae" d="M 97.5,-0.5 C 98.8333,-0.5 100.167,-0.5 101.5,-0.5C 103.522,1.41928 103.856,3.58595 102.5,6C 95.9885,7.22533 94.3218,5.05866 97.5,-0.5 Z"/></g>
<g><path style="opacity:1" fill="#ee5a88" d="M 188.5,2.5 C 189.833,3.16667 191.167,3.83333 192.5,4.5C 193.9,6.01626 195.233,7.68293 196.5,9.5C 197.325,10.3857 198.325,10.719 199.5,10.5C 199.5,11.8333 199.5,13.1667 199.5,14.5C 198.662,14.8417 198.328,15.5084 198.5,16.5C 197.209,15.4583 197.209,14.2917 198.5,13C 196.869,11.1644 196.202,11.6644 196.5,14.5C 195.5,14.5 194.5,14.5 193.5,14.5C 192.221,13.032 190.554,12.3653 188.5,12.5C 188.5,11.1667 187.833,10.5 186.5,10.5C 185.54,8.5393 184.207,6.87264 182.5,5.5C 183.68,3.08699 185.68,2.08699 188.5,2.5 Z"/></g>
<g><path style="opacity:1" fill="#252f4e" d="M 37.5,-0.5 C 38.5,-0.5 39.5,-0.5 40.5,-0.5C 43.4919,0.848087 46.4919,2.34809 49.5,4C 49.2716,4.39877 48.9382,4.56544 48.5,4.5C 46.9519,4.82124 46.2852,5.82124 46.5,7.5C 43.0791,7.76164 42.0791,6.4283 43.5,3.5C 41.4346,2.1433 39.4346,0.809964 37.5,-0.5 Z"/></g>
<g><path style="opacity:1" fill="#24273a" d="M 106.5,-0.5 C 107.167,-0.5 107.833,-0.5 108.5,-0.5C 107.677,5.95025 106.343,12.2836 104.5,18.5C 106.415,18.7845 108.081,18.4511 109.5,17.5C 110.167,16.8333 110.833,16.1667 111.5,15.5C 111.5,16.5 111.5,17.5 111.5,18.5C 117.227,18.2598 122.894,18.5931 128.5,19.5C 133.591,20.2632 138.258,21.9298 142.5,24.5C 133.188,21.92 123.688,20.2533 114,19.5C 102.105,19.6681 90.938,22.3348 80.5,27.5C 69.7734,31.857 60.4401,38.1904 52.5,46.5C 50.8606,48.8061 48.8606,50.8061 46.5,52.5C 49.4126,46.9193 53.4126,42.2526 58.5,38.5C 61.4006,37.2085 63.7339,35.2085 65.5,32.5C 60.1469,31.7551 55.1469,32.7551 50.5,35.5C 40.826,39.3438 32.4927,45.1771 25.5,53C 27.6181,54.0821 29.6181,55.2488 31.5,56.5C 28.4121,56.6227 25.7454,55.6227 23.5,53.5C 26.189,50.4802 28.8556,47.4802 31.5,44.5C 41.95,36.9377 53.2833,31.6044 65.5,28.5C 66.391,27.8902 67.391,27.5569 68.5,27.5C 66.6815,28.9362 66.3482,30.6029 67.5,32.5C 77.5491,25.8131 88.5491,21.3131 100.5,19C 104.628,13.2051 106.628,6.70513 106.5,-0.5 Z"/></g>
<g><path style="opacity:1" fill="#2b3c67" d="M 110.5,-0.5 C 111.167,-0.5 111.833,-0.5 112.5,-0.5C 111.551,4.74012 111.218,10.0735 111.5,15.5C 110.833,16.1667 110.167,16.8333 109.5,17.5C 108.339,11.6345 108.672,5.63454 110.5,-0.5 Z"/></g>
<g><path style="opacity:1" fill="#7570a2" d="M 192.5,4.5 C 194.76,4.60298 197.094,4.93631 199.5,5.5C 199.5,7.16667 199.5,8.83333 199.5,10.5C 198.325,10.719 197.325,10.3857 196.5,9.5C 195.233,7.68293 193.9,6.01626 192.5,4.5 Z"/></g>
<g><path style="opacity:1" fill="#171f3a" d="M 50.5,5.5 C 50.5,5.16667 50.5,4.83333 50.5,4.5C 57.5882,5.35522 64.5882,6.68855 71.5,8.5C 72.6085,9.28997 73.9419,9.78997 75.5,10C 74.9056,10.4643 74.2389,10.631 73.5,10.5C 65.8683,8.67542 58.2016,7.00875 50.5,5.5 Z"/></g>
<g><path style="opacity:1" fill="#5d76cd" d="M 164.5,-0.5 C 166.5,-0.5 168.5,-0.5 170.5,-0.5C 172.219,0.0221067 173.552,1.02211 174.5,2.5C 176.522,4.69283 179.189,5.69283 182.5,5.5C 184.207,6.87264 185.54,8.5393 186.5,10.5C 183.88,12.1051 181.047,13.4384 178,14.5C 177.586,14.0426 177.086,13.7093 176.5,13.5C 173.793,14.5785 171.126,15.5785 168.5,16.5C 167.833,16.5 167.167,16.5 166.5,16.5C 166.672,15.5084 166.338,14.8417 165.5,14.5C 165.497,9.47255 165.164,4.47255 164.5,-0.5 Z"/></g>
<g><path style="opacity:1" fill="#b46da7" d="M 134.5,8.5 C 135.873,8.34332 137.207,8.50999 138.5,9C 137.944,9.38258 137.611,9.88258 137.5,10.5C 135.821,10.7148 134.821,10.0481 134.5,8.5 Z"/></g>
<g><path style="opacity:1" fill="#f05987" d="M 136.5,0.5 C 143.772,6.14591 151.772,10.8126 160.5,14.5C 161.918,16.3079 163.918,16.9746 166.5,16.5C 169.167,17.8333 171.833,19.1667 174.5,20.5C 173.448,20.7711 172.115,20.9378 170.5,21C 169.829,21.9862 169.829,23.1529 170.5,24.5C 169.167,24.5 167.833,24.5 166.5,24.5C 161.176,22.5029 155.843,20.5029 150.5,18.5C 149.817,16.8235 148.483,16.1568 146.5,16.5C 143.738,14.2753 140.738,12.2753 137.5,10.5C 137.611,9.88258 137.944,9.38258 138.5,9C 137.207,8.50999 135.873,8.34332 134.5,8.5C 133.167,7.16667 131.833,5.83333 130.5,4.5C 131.828,2.281 133.828,0.947671 136.5,0.5 Z"/></g>
<g><path style="opacity:1" fill="#4f556e" d="M 108.5,-0.5 C 109.167,-0.5 109.833,-0.5 110.5,-0.5C 108.672,5.63454 108.339,11.6345 109.5,17.5C 108.081,18.4511 106.415,18.7845 104.5,18.5C 106.343,12.2836 107.677,5.95025 108.5,-0.5 Z"/></g>
<g><path style="opacity:1" fill="#7cb1e6" d="M 188.5,12.5 C 190.554,12.3653 192.221,13.032 193.5,14.5C 193.821,16.0481 194.821,16.7148 196.5,16.5C 196.5,18.5 196.5,20.5 196.5,22.5C 189.07,22.6539 181.737,21.9872 174.5,20.5C 171.833,19.1667 169.167,17.8333 166.5,16.5C 167.167,16.5 167.833,16.5 168.5,16.5C 170.288,17.6225 172.288,17.7891 174.5,17C 179.154,15.3928 183.821,13.8928 188.5,12.5 Z"/></g>
<g><path style="opacity:1" fill="#253052" d="M 186.5,10.5 C 187.833,10.5 188.5,11.1667 188.5,12.5C 183.821,13.8928 179.154,15.3928 174.5,17C 172.288,17.7891 170.288,17.6225 168.5,16.5C 171.126,15.5785 173.793,14.5785 176.5,13.5C 177.086,13.7093 177.586,14.0426 178,14.5C 181.047,13.4384 183.88,12.1051 186.5,10.5 Z"/></g>
<g><path style="opacity:1" fill="#b46da7" d="M 160.5,14.5 C 162.398,15.0965 164.065,15.0965 165.5,14.5C 166.338,14.8417 166.672,15.5084 166.5,16.5C 163.918,16.9746 161.918,16.3079 160.5,14.5 Z"/></g>
<g><path style="opacity:1" fill="#c773a5" d="M 198.5,16.5 C 198.975,19.0821 198.308,21.0821 196.5,22.5C 196.5,20.5 196.5,18.5 196.5,16.5C 194.821,16.7148 193.821,16.0481 193.5,14.5C 194.5,14.5 195.5,14.5 196.5,14.5C 196.202,11.6644 196.869,11.1644 198.5,13C 197.209,14.2917 197.209,15.4583 198.5,16.5 Z"/></g>
<g><path style="opacity:1" fill="#f55064" d="M 199.5,14.5 C 199.5,19.1667 199.5,23.8333 199.5,28.5C 199.167,28.5 198.833,28.5 198.5,28.5C 193.067,29.3641 187.734,29.3641 182.5,28.5C 178.5,27.8333 174.5,27.1667 170.5,26.5C 170.5,25.8333 170.5,25.1667 170.5,24.5C 169.829,23.1529 169.829,21.9862 170.5,21C 172.115,20.9378 173.448,20.7711 174.5,20.5C 181.737,21.9872 189.07,22.6539 196.5,22.5C 198.308,21.0821 198.975,19.0821 198.5,16.5C 198.328,15.5084 198.662,14.8417 199.5,14.5 Z"/></g>
<g><path style="opacity:1" fill="#374368" d="M 90.5,0.5 C 81.7519,7.10303 75.9185,15.7697 73,26.5C 71.6439,27.3802 70.1439,27.7135 68.5,27.5C 69.209,26.596 70.209,26.2627 71.5,26.5C 72.2797,21.2012 74.2797,16.3678 77.5,12C 75.9419,11.79 74.6085,11.29 73.5,10.5C 74.2389,10.631 74.9056,10.4643 75.5,10C 73.9419,9.78997 72.6085,9.28997 71.5,8.5C 73.7925,8.24358 75.9592,8.57692 78,9.5C 78.0488,6.584 79.2155,5.584 81.5,6.5C 83.386,5.06985 85.0527,3.40318 86.5,1.5C 87.6888,0.571312 89.0222,0.237978 90.5,0.5 Z"/></g>
<g><path style="opacity:1" fill="#1e2237" d="M 120.5,16.5 C 129.167,16.5 137.833,16.5 146.5,16.5C 148.483,16.1568 149.817,16.8235 150.5,18.5C 145.167,18.5 139.833,18.5 134.5,18.5C 128.013,17.6717 121.346,17.1717 114.5,17C 116.473,16.5045 118.473,16.3379 120.5,16.5 Z"/></g>
<g><path style="opacity:1" fill="#5a6281" d="M 111.5,15.5 C 114.713,15.19 117.713,15.5233 120.5,16.5C 118.473,16.3379 116.473,16.5045 114.5,17C 121.346,17.1717 128.013,17.6717 134.5,18.5C 132.265,18.2053 130.265,18.5386 128.5,19.5C 122.894,18.5931 117.227,18.2598 111.5,18.5C 111.5,17.5 111.5,16.5 111.5,15.5 Z"/></g>
<g><path style="opacity:1" fill="#8ec7f6" d="M 65.5,28.5 C 53.2833,31.6044 41.95,36.9377 31.5,44.5C 29.8561,44.7135 28.3561,44.3802 27,43.5C 26.6667,44.5 26.3333,45.5 26,46.5C 25,46.1667 24,45.8333 23,45.5C 21.6667,46.8333 20.3333,48.1667 19,49.5C 11.8187,42.128 5.31866,35.7947 -0.5,30.5C -0.5,27.1667 -0.5,23.8333 -0.5,20.5C 0.688495,19.9524 1.85516,19.6191 3,19.5C 4.33333,20.8333 5.66667,22.1667 7,23.5C 7.66667,22.8333 8.33333,22.1667 9,21.5C 10.3333,22.8333 11.6667,24.1667 13,25.5C 14.3333,22.8333 15.6667,22.8333 17,25.5C 18.8276,23.1927 20.4943,23.526 22,26.5C 25.6667,26.1667 29.3333,25.8333 33,25.5C 34,26.5 35,27.5 36,28.5C 38.7568,27.0294 41.0902,28.0294 43,31.5C 43.6667,30.8333 44.3333,30.1667 45,29.5C 46.7261,30.5762 48.5594,30.7429 50.5,30C 49.3463,29.0862 49.513,28.2529 51,27.5C 53.2192,27.9401 55.7192,28.6068 58.5,29.5C 60.7822,28.7766 63.1155,28.4433 65.5,28.5 Z"/></g>
<g><path style="opacity:1" fill="#b37aaf" d="M 166.5,24.5 C 167.833,24.5 169.167,24.5 170.5,24.5C 170.5,25.1667 170.5,25.8333 170.5,26.5C 168.517,26.8432 167.183,26.1765 166.5,24.5 Z"/></g>
<g><path style="opacity:1" fill="#d0d0e4" d="M 142.5,24.5 C 151.599,28.8853 160.266,34.052 168.5,40C 181.916,52.6662 189.583,68.1662 191.5,86.5C 191.5,92.1667 191.5,97.8333 191.5,103.5C 189.998,100.346 188.664,97.0128 187.5,93.5C 187.709,92.914 188.043,92.414 188.5,92C 187.376,91.7508 186.376,91.2508 185.5,90.5C 184.499,87.8268 182.999,85.4935 181,83.5C 180.768,84.7375 180.268,85.7375 179.5,86.5C 179.939,78.3844 179.272,70.3844 177.5,62.5C 176.191,65.6522 176.524,68.6522 178.5,71.5C 177.691,73.0709 177.357,74.7376 177.5,76.5C 173.029,71.517 168.029,66.3503 162.5,61C 160.866,60.5065 159.199,60.3398 157.5,60.5C 157.657,59.1266 157.49,57.7932 157,56.5C 156.505,58.4727 156.338,60.4727 156.5,62.5C 155.673,57.3491 155.173,52.0158 155,46.5C 153.67,45.4178 152.17,44.7512 150.5,44.5C 134.134,33.7409 116.134,28.5743 96.5,29C 94.5932,30.122 92.5932,30.9553 90.5,31.5C 89.7375,30.7321 88.7375,30.2321 87.5,30C 87.9082,27.1386 87.0749,26.9719 85,29.5C 83.3775,28.9011 81.8775,28.2344 80.5,27.5C 90.938,22.3348 102.105,19.6681 114,19.5C 123.688,20.2533 133.188,21.92 142.5,24.5 Z"/></g>
<g><path style="opacity:1" fill="#f5f3f8" d="M 80.5,27.5 C 81.8775,28.2344 83.3775,28.9011 85,29.5C 87.0749,26.9719 87.9082,27.1386 87.5,30C 88.7375,30.2321 89.7375,30.7321 90.5,31.5C 86.5444,33.4854 82.8777,35.9854 79.5,39C 92.6233,37.7741 105.623,38.7741 118.5,42C 121.309,43.0934 123.976,44.2601 126.5,45.5C 125.537,48.7442 124.204,51.7442 122.5,54.5C 121.12,53.2935 119.953,53.6269 119,55.5C 117.667,54.1667 116.333,52.8333 115,51.5C 113.434,52.0606 112.101,51.3939 111,49.5C 110.667,49.8333 110.333,50.1667 110,50.5C 107.255,47.7546 104.921,45.4213 103,43.5C 102.086,44.6537 101.253,44.487 100.5,43C 98.0049,42.8425 95.6716,42.6759 93.5,42.5C 92.1186,43.8814 90.7853,45.2147 89.5,46.5C 84.4497,52.7923 81.6164,60.1256 81,68.5C 79.4935,60.2482 80.9935,52.5815 85.5,45.5C 84.6446,44.707 83.8113,45.0403 83,46.5C 80.3432,53.0628 78.8432,59.8961 78.5,67C 79.0362,70.0725 80.3696,72.7391 82.5,75C 81.9056,75.4643 81.2389,75.631 80.5,75.5C 75.196,74.6161 69.8626,73.9494 64.5,73.5C 62.0521,72.5269 59.3854,72.1936 56.5,72.5C 59.7225,62.5945 65.0558,53.9278 72.5,46.5C 72.3333,46.1667 72.1667,45.8333 72,45.5C 67.2184,49.7724 63.0517,54.439 59.5,59.5C 60.3482,57.6882 60.3482,56.1882 59.5,55C 57.5,54.3333 55.5,53.6667 53.5,53C 54.1667,52.3333 54.8333,51.6667 55.5,51C 54.1667,50.3333 52.8333,49.6667 51.5,49C 52.5,48.6667 53.5,48.3333 54.5,48C 53.5842,47.7216 52.9175,47.2216 52.5,46.5C 60.4401,38.1904 69.7734,31.857 80.5,27.5 Z"/></g>
<g><path style="opacity:1" fill="#cbcde2" d="M 58.5,38.5 C 57.3117,37.6364 56.1451,36.6364 55,35.5C 53.7012,35.9662 52.2012,35.9662 50.5,35.5C 55.1469,32.7551 60.1469,31.7551 65.5,32.5C 63.7339,35.2085 61.4006,37.2085 58.5,38.5 Z"/></g>
<g><path style="opacity:1" fill="#44475b" d="M 150.5,44.5 C 154.399,48.8894 155.399,53.8894 153.5,59.5C 146.147,54.1535 138.147,49.8202 129.5,46.5C 128.791,45.596 127.791,45.2627 126.5,45.5C 123.976,44.2601 121.309,43.0934 118.5,42C 105.623,38.7741 92.6233,37.7741 79.5,39C 82.8777,35.9854 86.5444,33.4854 90.5,31.5C 92.5932,30.9553 94.5932,30.122 96.5,29C 116.134,28.5743 134.134,33.7409 150.5,44.5 Z"/></g>
<g><path style="opacity:1" fill="#f3f1f5" d="M 50.5,35.5 C 52.2012,35.9662 53.7012,35.9662 55,35.5C 56.1451,36.6364 57.3117,37.6364 58.5,38.5C 53.4126,42.2526 49.4126,46.9193 46.5,52.5C 42.3012,56.0516 37.3012,57.385 31.5,56.5C 29.6181,55.2488 27.6181,54.0821 25.5,53C 32.4927,45.1771 40.826,39.3438 50.5,35.5 Z"/></g>
<g><path style="opacity:1" fill="#7dbdf3" d="M 128.5,19.5 C 130.265,18.5386 132.265,18.2053 134.5,18.5C 139.833,18.5 145.167,18.5 150.5,18.5C 155.843,20.5029 161.176,22.5029 166.5,24.5C 167.183,26.1765 168.517,26.8432 170.5,26.5C 174.5,27.1667 178.5,27.8333 182.5,28.5C 184.743,29.8117 187.41,30.4783 190.5,30.5C 193.59,30.4783 196.257,29.8117 198.5,28.5C 198.833,28.5 199.167,28.5 199.5,28.5C 199.5,44.5 199.5,60.5 199.5,76.5C 196.315,76.9804 193.481,76.3137 191,74.5C 183.844,49.1764 167.678,32.5097 142.5,24.5C 138.258,21.9298 133.591,20.2632 128.5,19.5 Z"/></g>
<g><path style="opacity:1" fill="#cc819a" d="M 182.5,28.5 C 187.734,29.3641 193.067,29.3641 198.5,28.5C 196.257,29.8117 193.59,30.4783 190.5,30.5C 187.41,30.4783 184.743,29.8117 182.5,28.5 Z"/></g>
<g><path style="opacity:1" fill="#fbfafd" d="M 122.5,54.5 C 121.908,59.0094 120.241,63.0094 117.5,66.5C 116.542,66.0472 115.708,65.3805 115,64.5C 112.809,65.2142 110.476,65.5475 108,65.5C 107.333,64.1667 106.667,62.8333 106,61.5C 105.333,62.8333 104.667,64.1667 104,65.5C 98,64.1667 92,64.1667 86,65.5C 84.9614,64.7562 84.4614,63.7562 84.5,62.5C 85.5882,56.9892 87.2548,51.6559 89.5,46.5C 90.7853,45.2147 92.1186,43.8814 93.5,42.5C 95.6716,42.6759 98.0049,42.8425 100.5,43C 101.253,44.487 102.086,44.6537 103,43.5C 104.921,45.4213 107.255,47.7546 110,50.5C 110.333,50.1667 110.667,49.8333 111,49.5C 112.101,51.3939 113.434,52.0606 115,51.5C 116.333,52.8333 117.667,54.1667 119,55.5C 119.953,53.6269 121.12,53.2935 122.5,54.5 Z"/></g>
<g><path style="opacity:1" fill="#a4d0f6" d="M 31.5,44.5 C 28.8556,47.4802 26.189,50.4802 23.5,53.5C 25.7454,55.6227 28.4121,56.6227 31.5,56.5C 34.5767,57.856 37.9101,58.6894 41.5,59C 38.0713,64.3642 35.0713,69.8642 32.5,75.5C 31.4168,75.5394 30.4168,75.8728 29.5,76.5C 28.8112,79.4081 27.6445,82.0748 26,84.5C 25.6667,84.1667 25.3333,83.8333 25,83.5C 24.6667,85.1667 24.3333,86.8333 24,88.5C 23.6667,88.1667 23.3333,87.8333 23,87.5C 22.6667,88.5 22.3333,89.5 22,90.5C 20.8525,89.5419 19.8525,89.8753 19,91.5C 17.4452,89.8542 15.7785,89.5209 14,90.5C 9.17246,87.7228 4.67246,83.8894 0.5,79C 3.16667,77.6667 3.16667,76.3333 0.5,75C 2.9118,73.164 2.57847,71.664 -0.5,70.5C -0.5,57.1667 -0.5,43.8333 -0.5,30.5C 5.31866,35.7947 11.8187,42.128 19,49.5C 20.3333,48.1667 21.6667,46.8333 23,45.5C 24,45.8333 25,46.1667 26,46.5C 26.3333,45.5 26.6667,44.5 27,43.5C 28.3561,44.3802 29.8561,44.7135 31.5,44.5 Z"/></g>
<g><path style="opacity:1" fill="#1e2338" d="M 142.5,24.5 C 167.678,32.5097 183.844,49.1764 191,74.5C 193.481,76.3137 196.315,76.9804 199.5,76.5C 199.5,76.8333 199.5,77.1667 199.5,77.5C 197.167,77.5 194.833,77.5 192.5,77.5C 195.638,90.3469 195.138,103.014 191,115.5C 190.601,115.272 190.435,114.938 190.5,114.5C 190.5,113.5 190.5,112.5 190.5,111.5C 191.954,106.577 192.621,101.411 192.5,96C 192.498,92.6482 192.165,89.4815 191.5,86.5C 189.583,68.1662 181.916,52.6662 168.5,40C 160.266,34.052 151.599,28.8853 142.5,24.5 Z"/></g>
<g><path style="opacity:1" fill="#d5d2da" d="M 89.5,46.5 C 87.2548,51.6559 85.5882,56.9892 84.5,62.5C 83.5139,66.97 83.1805,71.6367 83.5,76.5C 82.209,76.7373 81.209,76.404 80.5,75.5C 81.2389,75.631 81.9056,75.4643 82.5,75C 80.3696,72.7391 79.0362,70.0725 78.5,67C 78.8432,59.8961 80.3432,53.0628 83,46.5C 83.8113,45.0403 84.6446,44.707 85.5,45.5C 80.9935,52.5815 79.4935,60.2482 81,68.5C 81.6164,60.1256 84.4497,52.7923 89.5,46.5 Z"/></g>
<g><path style="opacity:1" fill="#cdccd8" d="M 64.5,73.5 C 60.8333,73.5 57.1667,73.5 53.5,73.5C 53.3433,72.1266 53.51,70.7932 54,69.5C 56.1118,66.2729 57.9451,62.9396 59.5,59.5C 63.0517,54.439 67.2184,49.7724 72,45.5C 72.1667,45.8333 72.3333,46.1667 72.5,46.5C 65.0558,53.9278 59.7225,62.5945 56.5,72.5C 59.3854,72.1936 62.0521,72.5269 64.5,73.5 Z"/></g>
<g><path style="opacity:1" fill="#afb1c4" d="M 150.5,44.5 C 152.17,44.7512 153.67,45.4178 155,46.5C 155.173,52.0158 155.673,57.3491 156.5,62.5C 156.743,73.8644 156.41,85.1977 155.5,96.5C 153.847,96.3404 152.514,95.6737 151.5,94.5C 152.931,94.1193 153.764,93.1193 154,91.5C 154.808,80.7568 154.642,70.0901 153.5,59.5C 155.399,53.8894 154.399,48.8894 150.5,44.5 Z"/></g>
<g><path style="opacity:1" fill="#eeebf3" d="M 129.5,46.5 C 138.147,49.8202 146.147,54.1535 153.5,59.5C 154.642,70.0901 154.808,80.7568 154,91.5C 153.764,93.1193 152.931,94.1193 151.5,94.5C 146.856,93.4005 142.522,91.7339 138.5,89.5C 135.861,86.2323 134.361,82.5656 134,78.5C 134.333,78.8333 134.667,79.1667 135,79.5C 135.09,76.5377 133.757,74.2043 131,72.5C 128.517,63.7907 128.017,55.124 129.5,46.5 Z"/></g>
<g><path style="opacity:1" fill="#ebe9f0" d="M 134.5,88.5 C 129.176,87.5031 123.843,86.5031 118.5,85.5C 116.955,85.5108 115.622,85.8442 114.5,86.5C 112.605,87.973 110.939,89.6397 109.5,91.5C 107.412,90.0605 105.079,89.3939 102.5,89.5C 100.401,88.3882 98.0673,87.7215 95.5,87.5C 95.7564,85.2075 95.4231,83.0408 94.5,81C 91.025,78.9258 87.3583,77.4258 83.5,76.5C 83.1805,71.6367 83.5139,66.97 84.5,62.5C 84.4614,63.7562 84.9614,64.7562 86,65.5C 92,64.1667 98,64.1667 104,65.5C 104.667,64.1667 105.333,62.8333 106,61.5C 106.667,62.8333 107.333,64.1667 108,65.5C 110.476,65.5475 112.809,65.2142 115,64.5C 115.708,65.3805 116.542,66.0472 117.5,66.5C 116.782,68.1368 116.616,69.8034 117,71.5C 119.772,66.9555 122.272,62.2888 124.5,57.5C 126.271,58.0354 126.604,58.8687 125.5,60C 126.167,63.3333 126.833,66.6667 127.5,70C 126.167,70.3333 124.833,70.6667 123.5,71C 125.609,72.1411 127.442,73.6411 129,75.5C 130.387,80.0802 132.22,84.4136 134.5,88.5 Z"/></g>
<g><path style="opacity:1" fill="#c5c3ce" d="M 126.5,45.5 C 127.791,45.2627 128.791,45.596 129.5,46.5C 128.017,55.124 128.517,63.7907 131,72.5C 133.757,74.2043 135.09,76.5377 135,79.5C 134.667,79.1667 134.333,78.8333 134,78.5C 134.361,82.5656 135.861,86.2323 138.5,89.5C 136.901,89.7678 135.568,89.4345 134.5,88.5C 132.22,84.4136 130.387,80.0802 129,75.5C 127.442,73.6411 125.609,72.1411 123.5,71C 124.833,70.6667 126.167,70.3333 127.5,70C 126.833,66.6667 126.167,63.3333 125.5,60C 126.604,58.8687 126.271,58.0354 124.5,57.5C 122.272,62.2888 119.772,66.9555 117,71.5C 116.616,69.8034 116.782,68.1368 117.5,66.5C 120.241,63.0094 121.908,59.0094 122.5,54.5C 124.204,51.7442 125.537,48.7442 126.5,45.5 Z"/></g>
<g><path style="opacity:1" fill="#f0edf4" d="M 177.5,76.5 C 177.803,85.0265 177.47,93.6932 176.5,102.5C 176.461,104.952 175.794,106.952 174.5,108.5C 168.299,104.236 161.966,100.236 155.5,96.5C 156.41,85.1977 156.743,73.8644 156.5,62.5C 156.338,60.4727 156.505,58.4727 157,56.5C 157.49,57.7932 157.657,59.1266 157.5,60.5C 159.199,60.3398 160.866,60.5065 162.5,61C 168.029,66.3503 173.029,71.517 177.5,76.5 Z"/></g>
<g><path style="opacity:1" fill="#3e435b" d="M 53.5,73.5 C 56.4213,74.1939 59.4213,75.0272 62.5,76C 58.6437,76.1773 54.977,76.6773 51.5,77.5C 49.2494,80.9258 47.5827,84.5925 46.5,88.5C 46.7947,86.2646 46.4614,84.2646 45.5,82.5C 46.3195,80.1877 47.1529,77.8543 48,75.5C 49.5843,74.1387 51.4176,73.472 53.5,73.5 Z"/></g>
<g><path style="opacity:1" fill="#2d2f43" d="M 46.5,52.5 C 37.9067,68.3533 29.9067,84.3533 22.5,100.5C 22.5,99.8333 22.5,99.1667 22.5,98.5C 25.8345,90.8283 29.1679,83.1617 32.5,75.5C 35.0713,69.8642 38.0713,64.3642 41.5,59C 37.9101,58.6894 34.5767,57.856 31.5,56.5C 37.3012,57.385 42.3012,56.0516 46.5,52.5 Z"/></g>
<g><path style="opacity:1" fill="#4a4e65" d="M 199.5,77.5 C 199.5,93.5 199.5,109.5 199.5,125.5C 193.324,140.186 186.324,154.52 178.5,168.5C 178.806,165.615 178.473,162.948 177.5,160.5C 177.263,159.209 177.596,158.209 178.5,157.5C 178.393,159.379 178.893,159.712 180,158.5C 182.466,149.903 184.633,141.237 186.5,132.5C 186.457,131.584 186.124,130.917 185.5,130.5C 185.328,129.508 185.662,128.842 186.5,128.5C 186.81,129.738 187.31,129.738 188,128.5C 189.665,124.423 190.165,120.423 189.5,116.5C 189.328,115.508 189.662,114.842 190.5,114.5C 190.435,114.938 190.601,115.272 191,115.5C 195.138,103.014 195.638,90.3469 192.5,77.5C 194.833,77.5 197.167,77.5 199.5,77.5 Z"/></g>
<g><path style="opacity:1" fill="#8c95be" d="M 51.5,77.5 C 57.8421,77.3338 64.1754,77.5005 70.5,78C 73.5224,78.0984 76.1891,78.9318 78.5,80.5C 70.8948,91.6432 60.2282,97.6432 46.5,98.5C 46.5,95.1667 46.5,91.8333 46.5,88.5C 47.5827,84.5925 49.2494,80.9258 51.5,77.5 Z"/></g>
<g><path style="opacity:1" fill="#b2d2f0" d="M -0.5,70.5 C 2.57847,71.664 2.9118,73.164 0.5,75C 3.16667,76.3333 3.16667,77.6667 0.5,79C 4.67246,83.8894 9.17246,87.7228 14,90.5C 15.7785,89.5209 17.4452,89.8542 19,91.5C 19.8525,89.8753 20.8525,89.5419 22,90.5C 22.3333,89.5 22.6667,88.5 23,87.5C 23.3333,87.8333 23.6667,88.1667 24,88.5C 24.3333,86.8333 24.6667,85.1667 25,83.5C 25.3333,83.8333 25.6667,84.1667 26,84.5C 27.6445,82.0748 28.8112,79.4081 29.5,76.5C 30.4168,75.8728 31.4168,75.5394 32.5,75.5C 29.1679,83.1617 25.8345,90.8283 22.5,98.5C 15.0681,100.393 7.40139,101.06 -0.5,100.5C -0.5,90.5 -0.5,80.5 -0.5,70.5 Z"/></g>
<g><path style="opacity:1" fill="#283357" d="M 78.5,80.5 C 82.6781,81.1452 86.0114,83.3119 88.5,87C 87.45,91.1799 85.7834,95.0133 83.5,98.5C 80.2155,98.2693 77.7155,99.6026 76,102.5C 73,102.167 70,101.833 67,101.5C 63.9693,105.093 60.8026,107.76 57.5,109.5C 54.075,108.278 50.7416,106.778 47.5,105C 46.5769,102.959 46.2436,100.792 46.5,98.5C 60.2282,97.6432 70.8948,91.6432 78.5,80.5 Z"/></g>
<g><path style="opacity:1" fill="#eeebf2" d="M 52.5,46.5 C 52.9175,47.2216 53.5842,47.7216 54.5,48C 53.5,48.3333 52.5,48.6667 51.5,49C 52.8333,49.6667 54.1667,50.3333 55.5,51C 54.8333,51.6667 54.1667,52.3333 53.5,53C 55.5,53.6667 57.5,54.3333 59.5,55C 60.3482,56.1882 60.3482,57.6882 59.5,59.5C 57.9451,62.9396 56.1118,66.2729 54,69.5C 53.51,70.7932 53.3433,72.1266 53.5,73.5C 51.4176,73.472 49.5843,74.1387 48,75.5C 47.1529,77.8543 46.3195,80.1877 45.5,82.5C 42.7342,89.4739 41.9008,96.8073 43,104.5C 43.3661,106.452 44.1995,108.118 45.5,109.5C 43.7417,116.384 42.7417,123.384 42.5,130.5C 41.8775,135.334 40.8775,135 39.5,129.5C 39.162,127.146 38.662,124.813 38,122.5C 37.8261,127.684 37.3261,132.684 36.5,137.5C 34.3021,135.902 31.9687,134.569 29.5,133.5C 27.6396,129.917 25.9729,126.251 24.5,122.5C 24.75,119.786 24.9167,117.119 25,114.5C 22.9204,119.618 22.0871,124.951 22.5,130.5C 20.0225,127.189 19.0225,123.355 19.5,119C 19.9739,112.746 20.9739,106.579 22.5,100.5C 29.9067,84.3533 37.9067,68.3533 46.5,52.5C 48.8606,50.8061 50.8606,48.8061 52.5,46.5 Z"/></g>
<g><path style="opacity:1" fill="#4f5267" d="M 114.5,86.5 C 118.573,87.0087 122.573,87.842 126.5,89C 125.584,89.2784 124.918,89.7784 124.5,90.5C 121.887,89.5651 119.221,89.3985 116.5,90C 115.695,91.1127 115.028,92.2794 114.5,93.5C 112.447,93.5979 110.78,92.9313 109.5,91.5C 110.939,89.6397 112.605,87.973 114.5,86.5 Z"/></g>
<g><path style="opacity:1" fill="#6d7186" d="M 191.5,86.5 C 192.165,89.4815 192.498,92.6482 192.5,96C 192.621,101.411 191.954,106.577 190.5,111.5C 190.279,108.721 190.612,106.054 191.5,103.5C 191.5,97.8333 191.5,92.1667 191.5,86.5 Z"/></g>
<g><path style="opacity:1" fill="#1e2032" d="M 53.5,73.5 C 57.1667,73.5 60.8333,73.5 64.5,73.5C 69.8626,73.9494 75.196,74.6161 80.5,75.5C 81.209,76.404 82.209,76.7373 83.5,76.5C 87.3583,77.4258 91.025,78.9258 94.5,81C 95.4231,83.0408 95.7564,85.2075 95.5,87.5C 98.0673,87.7215 100.401,88.3882 102.5,89.5C 101.1,90.0998 100.1,91.0998 99.5,92.5C 97.4727,92.3379 95.4727,92.5045 93.5,93C 90.9208,97.5966 88.2542,102.097 85.5,106.5C 74.4241,115.891 62.0908,117.891 48.5,112.5C 47.5,111.5 46.5,110.5 45.5,109.5C 44.1995,108.118 43.3661,106.452 43,104.5C 41.9008,96.8073 42.7342,89.4739 45.5,82.5C 46.4614,84.2646 46.7947,86.2646 46.5,88.5C 46.5,91.8333 46.5,95.1667 46.5,98.5C 46.2436,100.792 46.5769,102.959 47.5,105C 50.7416,106.778 54.075,108.278 57.5,109.5C 63.4894,110.85 69.4894,110.683 75.5,109C 79.9088,106.766 82.5755,103.266 83.5,98.5C 85.7834,95.0133 87.45,91.1799 88.5,87C 86.0114,83.3119 82.6781,81.1452 78.5,80.5C 76.1891,78.9318 73.5224,78.0984 70.5,78C 64.1754,77.5005 57.8421,77.3338 51.5,77.5C 54.977,76.6773 58.6437,76.1773 62.5,76C 59.4213,75.0272 56.4213,74.1939 53.5,73.5 Z"/></g>
<g><path style="opacity:1" fill="#b7bbcc" d="M 22.5,98.5 C 22.5,99.1667 22.5,99.8333 22.5,100.5C 21.8333,101.167 21.1667,101.833 20.5,102.5C 17.3979,102.154 14.5645,102.821 12,104.5C 7.88105,103.341 3.71438,103.341 -0.5,104.5C -0.5,103.167 -0.5,101.833 -0.5,100.5C 7.40139,101.06 15.0681,100.393 22.5,98.5 Z"/></g>
<g><path style="opacity:1" fill="#3a425e" d="M 83.5,98.5 C 82.5755,103.266 79.9088,106.766 75.5,109C 69.4894,110.683 63.4894,110.85 57.5,109.5C 60.8026,107.76 63.9693,105.093 67,101.5C 70,101.833 73,102.167 76,102.5C 77.7155,99.6026 80.2155,98.2693 83.5,98.5 Z"/></g>
<g><path style="opacity:1" fill="#dbd8e2" d="M 99.5,92.5 C 100.5,93.1667 101.5,93.8333 102.5,94.5C 100.238,98.4337 97.5711,102.1 94.5,105.5C 91.5719,106.484 88.5719,106.817 85.5,106.5C 88.2542,102.097 90.9208,97.5966 93.5,93C 95.4727,92.5045 97.4727,92.3379 99.5,92.5 Z"/></g>
<g><path style="opacity:1" fill="#baacaa" d="M 20.5,102.5 C 20.405,104.786 19.7384,106.786 18.5,108.5C 17.1591,106.88 15.3258,105.88 13,105.5C 8.40371,106.088 3.90371,106.421 -0.5,106.5C -0.5,105.833 -0.5,105.167 -0.5,104.5C 3.71438,103.341 7.88105,103.341 12,104.5C 14.5645,102.821 17.3979,102.154 20.5,102.5 Z"/></g>
<g><path style="opacity:1" fill="#f0d3ad" d="M 18.5,108.5 C 17.1424,115.543 17.3091,122.543 19,129.5C 20.8022,130.789 21.9688,132.456 22.5,134.5C 22.8209,138.372 21.4876,141.539 18.5,144C 18.8333,144.333 19.1667,144.667 19.5,145C 18.9797,148.404 17.813,151.571 16,154.5C 15.6667,154.167 15.3333,153.833 15,153.5C 14.502,156.482 14.3354,159.482 14.5,162.5C 11.0646,169.706 7.89792,177.039 5,184.5C 3.64294,187.898 1.80961,190.898 -0.5,193.5C -0.5,164.5 -0.5,135.5 -0.5,106.5C 3.90371,106.421 8.40371,106.088 13,105.5C 15.3258,105.88 17.1591,106.88 18.5,108.5 Z"/></g>
<g><path style="opacity:1" fill="#efecf2" d="M 102.5,94.5 C 104.842,94.5041 106.842,95.3375 108.5,97C 104.483,111.217 108.817,121.717 121.5,128.5C 119.492,130.268 117.326,131.934 115,133.5C 113.933,132.809 112.766,132.309 111.5,132C 112.458,130.853 112.125,129.853 110.5,129C 111.458,127.853 111.125,126.853 109.5,126C 110.458,124.853 110.125,123.853 108.5,123C 109.784,121.703 109.617,120.536 108,119.5C 107.517,120.448 107.351,121.448 107.5,122.5C 105.167,121.167 102.833,119.833 100.5,118.5C 100.716,116.319 99.883,114.653 98,113.5C 95.9742,115.566 93.9742,115.233 92,112.5C 91.5,112.667 91,112.833 90.5,113C 94.5635,115.881 93.8969,117.214 88.5,117C 91.1667,117.667 91.1667,118.333 88.5,119C 93.8333,119.667 93.8333,120.333 88.5,121C 92.449,121.807 92.449,122.307 88.5,122.5C 88.5,123.5 88.5,124.5 88.5,125.5C 87.8333,125.5 87.1667,125.5 86.5,125.5C 87.7143,123.192 87.7143,120.859 86.5,118.5C 85.7753,122.011 83.4419,123.345 79.5,122.5C 78.7836,123.311 77.9503,123.978 77,124.5C 70.1253,123.757 62.9586,123.591 55.5,124C 55.8333,123.667 56.1667,123.333 56.5,123C 53.0569,122.779 52.7236,121.779 55.5,120C 54,119.167 52.8333,118 52,116.5C 50.8525,117.458 49.8525,117.125 49,115.5C 48.5172,116.448 48.3505,117.448 48.5,118.5C 47.5489,117.081 47.2155,115.415 47.5,113.5C 47.5,112.833 47.8333,112.5 48.5,112.5C 62.0908,117.891 74.4241,115.891 85.5,106.5C 88.5719,106.817 91.5719,106.484 94.5,105.5C 97.5711,102.1 100.238,98.4337 102.5,94.5 Z"/></g>
<g><path style="opacity:1" fill="#f9f3f1" d="M 121.5,128.5 C 130.583,130.498 139.249,129.498 147.5,125.5C 148.043,125.56 148.376,125.893 148.5,126.5C 146.667,130.833 144.833,135.167 143,139.5C 139.573,141.129 136.073,142.629 132.5,144C 119.535,145.299 106.535,145.799 93.5,145.5C 89.4432,145.152 85.4432,144.486 81.5,143.5C 81.3893,142.883 81.056,142.383 80.5,142C 85.057,137.946 89.057,133.446 92.5,128.5C 91.7174,126.712 90.3841,125.712 88.5,125.5C 88.5,124.5 88.5,123.5 88.5,122.5C 92.449,122.307 92.449,121.807 88.5,121C 93.8333,120.333 93.8333,119.667 88.5,119C 91.1667,118.333 91.1667,117.667 88.5,117C 93.8969,117.214 94.5635,115.881 90.5,113C 91,112.833 91.5,112.667 92,112.5C 93.9742,115.233 95.9742,115.566 98,113.5C 99.883,114.653 100.716,116.319 100.5,118.5C 102.833,119.833 105.167,121.167 107.5,122.5C 107.351,121.448 107.517,120.448 108,119.5C 109.617,120.536 109.784,121.703 108.5,123C 110.125,123.853 110.458,124.853 109.5,126C 111.125,126.853 111.458,127.853 110.5,129C 112.125,129.853 112.458,130.853 111.5,132C 112.766,132.309 113.933,132.809 115,133.5C 117.326,131.934 119.492,130.268 121.5,128.5 Z"/></g>
<g><path style="opacity:1" fill="#efecf3" d="M 173.5,116.5 C 171.323,133.74 165.156,149.74 155,164.5C 157.096,158.132 159.929,151.965 163.5,146C 162.833,145.333 162.167,145.333 161.5,146C 158.707,149.081 156.54,152.581 155,156.5C 152.271,159.399 149.438,162.066 146.5,164.5C 144.863,165.218 143.197,165.384 141.5,165C 144.48,158.416 146.313,151.583 147,144.5C 145.551,147.616 143.384,150.116 140.5,152C 139.563,152.692 138.897,152.525 138.5,151.5C 139.974,150.564 140.974,149.23 141.5,147.5C 145.446,138.608 149.113,129.608 152.5,120.5C 154.407,117.025 156.574,113.691 159,110.5C 163.489,113.384 168.322,115.384 173.5,116.5 Z"/></g>
<g><path style="opacity:1" fill="#9b97a3" d="M 24.5,122.5 C 23.8333,125.167 23.1667,127.833 22.5,130.5C 22.0871,124.951 22.9204,119.618 25,114.5C 24.9167,117.119 24.75,119.786 24.5,122.5 Z"/></g>
<g><path style="opacity:1" fill="#95909a" d="M 45.5,109.5 C 46.5,110.5 47.5,111.5 48.5,112.5C 47.8333,112.5 47.5,112.833 47.5,113.5C 46.5386,115.265 46.2053,117.265 46.5,119.5C 45.2132,120.871 44.5465,122.705 44.5,125C 44.6249,127.551 44.9582,130.051 45.5,132.5C 44.5,131.833 43.5,131.167 42.5,130.5C 42.7417,123.384 43.7417,116.384 45.5,109.5 Z"/></g>
<g><path style="opacity:1" fill="#202132" d="M 114.5,86.5 C 115.622,85.8442 116.955,85.5108 118.5,85.5C 123.843,86.5031 129.176,87.5031 134.5,88.5C 135.568,89.4345 136.901,89.7678 138.5,89.5C 142.522,91.7339 146.856,93.4005 151.5,94.5C 152.514,95.6737 153.847,96.3404 155.5,96.5C 161.966,100.236 168.299,104.236 174.5,108.5C 174.804,109.15 175.137,109.817 175.5,110.5C 174.628,112.45 173.961,114.45 173.5,116.5C 168.322,115.384 163.489,113.384 159,110.5C 156.574,113.691 154.407,117.025 152.5,120.5C 150.5,121.833 148.833,123.5 147.5,125.5C 139.249,129.498 130.583,130.498 121.5,128.5C 108.817,121.717 104.483,111.217 108.5,97C 106.842,95.3375 104.842,94.5041 102.5,94.5C 101.5,93.8333 100.5,93.1667 99.5,92.5C 100.1,91.0998 101.1,90.0998 102.5,89.5C 105.079,89.3939 107.412,90.0605 109.5,91.5C 110.78,92.9313 112.447,93.5979 114.5,93.5C 111.885,98.5195 111.052,103.853 112,109.5C 113.47,110.267 114.97,110.933 116.5,111.5C 117.141,112.482 117.807,113.482 118.5,114.5C 117.975,115.192 117.308,115.692 116.5,116C 117.869,117.719 118.869,119.552 119.5,121.5C 120.975,123.41 122.975,124.576 125.5,125C 130.552,125.726 135.552,125.559 140.5,124.5C 143.155,123.533 143.822,121.867 142.5,119.5C 143.802,117.799 145.469,116.632 147.5,116C 147.167,115.667 146.833,115.333 146.5,115C 148.782,112.718 151.448,110.052 154.5,107C 153.167,106.333 153.167,105.667 154.5,105C 152.329,102.071 149.662,99.904 146.5,98.5C 146.586,97.5041 146.252,96.6708 145.5,96C 138.724,93.24 131.724,91.4067 124.5,90.5C 124.918,89.7784 125.584,89.2784 126.5,89C 122.573,87.842 118.573,87.0087 114.5,86.5 Z"/></g>
<g><path style="opacity:1" fill="#283458" d="M 146.5,98.5 C 149.662,99.904 152.329,102.071 154.5,105C 153.167,105.667 153.167,106.333 154.5,107C 151.448,110.052 148.782,112.718 146.5,115C 146.833,115.333 147.167,115.667 147.5,116C 145.469,116.632 143.802,117.799 142.5,119.5C 143.822,121.867 143.155,123.533 140.5,124.5C 140.489,122.983 139.823,121.816 138.5,121C 140.657,119.915 140.824,118.749 139,117.5C 134.333,118.833 129.667,118.833 125,117.5C 123.5,119.469 121.667,120.802 119.5,121.5C 118.869,119.552 117.869,117.719 116.5,116C 117.308,115.692 117.975,115.192 118.5,114.5C 117.807,113.482 117.141,112.482 116.5,111.5C 128.966,112.595 138.966,108.262 146.5,98.5 Z"/></g>
<g><path style="opacity:1" fill="#8d95be" d="M 124.5,90.5 C 131.724,91.4067 138.724,93.24 145.5,96C 146.252,96.6708 146.586,97.5041 146.5,98.5C 138.966,108.262 128.966,112.595 116.5,111.5C 114.97,110.933 113.47,110.267 112,109.5C 111.052,103.853 111.885,98.5195 114.5,93.5C 115.028,92.2794 115.695,91.1127 116.5,90C 119.221,89.3985 121.887,89.5651 124.5,90.5 Z"/></g>
<g><path style="opacity:1" fill="#3b4461" d="M 140.5,124.5 C 135.552,125.559 130.552,125.726 125.5,125C 122.975,124.576 120.975,123.41 119.5,121.5C 121.667,120.802 123.5,119.469 125,117.5C 129.667,118.833 134.333,118.833 139,117.5C 140.824,118.749 140.657,119.915 138.5,121C 139.823,121.816 140.489,122.983 140.5,124.5 Z"/></g>
<g><path style="opacity:1" fill="#edeaf2" d="M 191.5,103.5 C 190.612,106.054 190.279,108.721 190.5,111.5C 190.5,112.5 190.5,113.5 190.5,114.5C 189.662,114.842 189.328,115.508 189.5,116.5C 187.87,120.226 186.87,124.226 186.5,128.5C 185.662,128.842 185.328,129.508 185.5,130.5C 182.701,139.361 180.368,148.361 178.5,157.5C 177.596,158.209 177.263,159.209 177.5,160.5C 173.664,173.049 171.331,186.049 170.5,199.5C 169.167,199.5 167.833,199.5 166.5,199.5C 165.414,185.957 165.414,172.79 166.5,160C 165.468,158.373 164.134,157.207 162.5,156.5C 164.625,153.377 166.459,150.044 168,146.5C 174.752,127.078 178.585,107.078 179.5,86.5C 180.268,85.7375 180.768,84.7375 181,83.5C 182.999,85.4935 184.499,87.8268 185.5,90.5C 186.376,91.2508 187.376,91.7508 188.5,92C 188.043,92.414 187.709,92.914 187.5,93.5C 188.664,97.0128 189.998,100.346 191.5,103.5 Z"/></g>
<g><path style="opacity:1" fill="#23212c" d="M 189.5,116.5 C 190.165,120.423 189.665,124.423 188,128.5C 187.31,129.738 186.81,129.738 186.5,128.5C 186.87,124.226 187.87,120.226 189.5,116.5 Z"/></g>
<g><path style="opacity:1" fill="#f6eeed" d="M 86.5,125.5 C 83.9057,130.594 79.9057,134.094 74.5,136C 75.3366,137.011 75.67,138.178 75.5,139.5C 74.5,139.5 73.5,139.5 72.5,139.5C 61.38,136.046 53.38,129.046 48.5,118.5C 48.3505,117.448 48.5172,116.448 49,115.5C 49.8525,117.125 50.8525,117.458 52,116.5C 52.8333,118 54,119.167 55.5,120C 52.7236,121.779 53.0569,122.779 56.5,123C 56.1667,123.333 55.8333,123.667 55.5,124C 62.9586,123.591 70.1253,123.757 77,124.5C 77.9503,123.978 78.7836,123.311 79.5,122.5C 83.4419,123.345 85.7753,122.011 86.5,118.5C 87.7143,120.859 87.7143,123.192 86.5,125.5 Z"/></g>
<g><path style="opacity:1" fill="#89838f" d="M 39.5,129.5 C 38.834,132.358 38.1674,135.358 37.5,138.5C 36.8933,138.376 36.56,138.043 36.5,137.5C 37.3261,132.684 37.8261,127.684 38,122.5C 38.662,124.813 39.162,127.146 39.5,129.5 Z"/></g>
<g><path style="opacity:1" fill="#43383b" d="M 22.5,100.5 C 20.9739,106.579 19.9739,112.746 19.5,119C 19.0225,123.355 20.0225,127.189 22.5,130.5C 23.1667,127.833 23.8333,125.167 24.5,122.5C 25.9729,126.251 27.6396,129.917 29.5,133.5C 28.8333,133.167 28.1667,132.833 27.5,132.5C 26.4955,131.317 25.6622,129.984 25,128.5C 24.6667,130.833 24.3333,133.167 24,135.5C 23.6174,134.944 23.1174,134.611 22.5,134.5C 21.9688,132.456 20.8022,130.789 19,129.5C 17.3091,122.543 17.1424,115.543 18.5,108.5C 19.7384,106.786 20.405,104.786 20.5,102.5C 21.1667,101.833 21.8333,101.167 22.5,100.5 Z"/></g>
<g><path style="opacity:1" fill="#e4dee1" d="M 46.5,119.5 C 51.3286,129.372 58.9953,136.372 69.5,140.5C 69.5,141.167 69.1667,141.5 68.5,141.5C 61.267,139.287 53.9337,138.953 46.5,140.5C 46.5987,137.763 46.2653,135.096 45.5,132.5C 44.9582,130.051 44.6249,127.551 44.5,125C 44.5465,122.705 45.2132,120.871 46.5,119.5 Z"/></g>
<g><path style="opacity:1" fill="#5d5155" d="M 47.5,113.5 C 47.2155,115.415 47.5489,117.081 48.5,118.5C 53.38,129.046 61.38,136.046 72.5,139.5C 72.1959,141.796 71.1959,142.129 69.5,140.5C 58.9953,136.372 51.3286,129.372 46.5,119.5C 46.2053,117.265 46.5386,115.265 47.5,113.5 Z"/></g>
<g><path style="opacity:1" fill="#bab9c7" d="M 179.5,86.5 C 178.585,107.078 174.752,127.078 168,146.5C 166.459,150.044 164.625,153.377 162.5,156.5C 160.121,160.726 157.121,164.559 153.5,168C 152.517,168.591 151.85,168.257 151.5,167C 151.934,164.684 152.934,162.684 154.5,161C 152.028,162.227 149.361,163.393 146.5,164.5C 149.438,162.066 152.271,159.399 155,156.5C 156.54,152.581 158.707,149.081 161.5,146C 162.167,145.333 162.833,145.333 163.5,146C 159.929,151.965 157.096,158.132 155,164.5C 165.156,149.74 171.323,133.74 173.5,116.5C 173.961,114.45 174.628,112.45 175.5,110.5C 175.137,109.817 174.804,109.15 174.5,108.5C 175.794,106.952 176.461,104.952 176.5,102.5C 177.47,93.6932 177.803,85.0265 177.5,76.5C 177.357,74.7376 177.691,73.0709 178.5,71.5C 176.524,68.6522 176.191,65.6522 177.5,62.5C 179.272,70.3844 179.939,78.3844 179.5,86.5 Z"/></g>
<g><path style="opacity:1" fill="#dacbc0" d="M 86.5,125.5 C 87.1667,125.5 87.8333,125.5 88.5,125.5C 90.3841,125.712 91.7174,126.712 92.5,128.5C 89.057,133.446 85.057,137.946 80.5,142C 81.056,142.383 81.3893,142.883 81.5,143.5C 79.6214,143.393 79.2881,143.893 80.5,145C 84.1098,145.738 87.4431,146.905 90.5,148.5C 86.5239,149.331 82.5239,149.497 78.5,149C 76.6818,145.925 74.0151,144.092 70.5,143.5C 69.8333,142.833 69.1667,142.167 68.5,141.5C 69.1667,141.5 69.5,141.167 69.5,140.5C 71.1959,142.129 72.1959,141.796 72.5,139.5C 73.5,139.5 74.5,139.5 75.5,139.5C 75.67,138.178 75.3366,137.011 74.5,136C 79.9057,134.094 83.9057,130.594 86.5,125.5 Z"/></g>
<g><path style="opacity:1" fill="#e1cdba" d="M 27.5,132.5 C 27.876,135.522 27.2093,138.522 25.5,141.5C 22.3749,148.95 18.7082,155.95 14.5,162.5C 14.3354,159.482 14.502,156.482 15,153.5C 15.3333,153.833 15.6667,154.167 16,154.5C 17.813,151.571 18.9797,148.404 19.5,145C 19.1667,144.667 18.8333,144.333 18.5,144C 21.4876,141.539 22.8209,138.372 22.5,134.5C 23.1174,134.611 23.6174,134.944 24,135.5C 24.3333,133.167 24.6667,130.833 25,128.5C 25.6622,129.984 26.4955,131.317 27.5,132.5 Z"/></g>
<g><path style="opacity:1" fill="#8f7a75" d="M 27.5,132.5 C 28.1667,132.833 28.8333,133.167 29.5,133.5C 29.5,134.167 29.5,134.833 29.5,135.5C 28.7362,138.018 27.7362,140.351 26.5,142.5C 26.5,141.833 26.1667,141.5 25.5,141.5C 27.2093,138.522 27.876,135.522 27.5,132.5 Z"/></g>
<g><path style="opacity:1" fill="#44393b" d="M 39.5,129.5 C 40.8775,135 41.8775,135.334 42.5,130.5C 43.5,131.167 44.5,131.833 45.5,132.5C 46.2653,135.096 46.5987,137.763 46.5,140.5C 53.9337,138.953 61.267,139.287 68.5,141.5C 69.1667,142.167 69.8333,142.833 70.5,143.5C 62.2563,141.298 53.9229,140.964 45.5,142.5C 45.0571,139.376 43.3905,137.043 40.5,135.5C 39.4221,137.475 39.7554,139.308 41.5,141C 40.1807,141.195 38.8474,141.028 37.5,140.5C 36.5,139.833 35.5,139.167 34.5,138.5C 33.1007,137.11 31.4341,136.11 29.5,135.5C 29.5,134.833 29.5,134.167 29.5,133.5C 31.9687,134.569 34.3021,135.902 36.5,137.5C 36.56,138.043 36.8933,138.376 37.5,138.5C 38.1674,135.358 38.834,132.358 39.5,129.5 Z"/></g>
<g><path style="opacity:1" fill="#f4e1d0" d="M 70.5,143.5 C 72.3603,144.939 74.027,146.605 75.5,148.5C 75.5394,149.583 75.8728,150.583 76.5,151.5C 75.9747,152.192 75.3081,152.692 74.5,153C 74.3671,155.599 74.3671,158.266 74.5,161C 73.5842,161.278 72.9175,161.778 72.5,162.5C 71.8333,162.5 71.1667,162.5 70.5,162.5C 68.2694,160.924 66.6028,158.757 65.5,156C 62.5755,155.012 59.5755,154.346 56.5,154C 54.3119,151.29 52.6452,148.29 51.5,145C 49.1902,144.503 46.8568,144.337 44.5,144.5C 44.8333,143.833 45.1667,143.167 45.5,142.5C 53.9229,140.964 62.2563,141.298 70.5,143.5 Z"/></g>
<g><path style="opacity:1" fill="#bbb0b2" d="M 152.5,120.5 C 149.113,129.608 145.446,138.608 141.5,147.5C 140.5,147.5 139.5,147.5 138.5,147.5C 139.429,146.685 140.429,145.852 141.5,145C 141,144.833 140.5,144.667 140,144.5C 132.115,146.537 124.281,148.204 116.5,149.5C 109.159,148.884 101.826,148.217 94.5,147.5C 94.1667,146.833 93.8333,146.167 93.5,145.5C 106.535,145.799 119.535,145.299 132.5,144C 136.073,142.629 139.573,141.129 143,139.5C 144.833,135.167 146.667,130.833 148.5,126.5C 148.376,125.893 148.043,125.56 147.5,125.5C 148.833,123.5 150.5,121.833 152.5,120.5 Z"/></g>
<g><path style="opacity:1" fill="#b6967e" d="M 44.5,144.5 C 46.8568,144.337 49.1902,144.503 51.5,145C 52.6452,148.29 54.3119,151.29 56.5,154C 59.5755,154.346 62.5755,155.012 65.5,156C 66.6028,158.757 68.2694,160.924 70.5,162.5C 67.5979,167.868 62.9312,172.034 56.5,175C 49.8733,177.381 43.2066,178.548 36.5,178.5C 34.0594,176.925 32.8928,174.592 33,171.5C 31.7429,163.005 33.7429,155.339 39,148.5C 40.451,146.536 42.2843,145.203 44.5,144.5 Z"/></g>
<g><path style="opacity:1" fill="#564746" d="M 81.5,143.5 C 85.4432,144.486 89.4432,145.152 93.5,145.5C 93.8333,146.167 94.1667,146.833 94.5,147.5C 93.0413,147.433 91.7079,147.766 90.5,148.5C 87.4431,146.905 84.1098,145.738 80.5,145C 79.2881,143.893 79.6214,143.393 81.5,143.5 Z"/></g>
<g><path style="opacity:1" fill="#d9c9be" d="M 45.5,142.5 C 42.0108,143.477 39.1775,145.477 37,148.5C 34.0631,152.373 32.2298,156.706 31.5,161.5C 29.5887,162.075 27.922,163.075 26.5,164.5C 30.7143,156.739 34.381,148.739 37.5,140.5C 38.8474,141.028 40.1807,141.195 41.5,141C 39.7554,139.308 39.4221,137.475 40.5,135.5C 43.3905,137.043 45.0571,139.376 45.5,142.5 Z"/></g>
<g><path style="opacity:1" fill="#5d5052" d="M 138.5,147.5 C 131.294,148.448 124.294,149.781 117.5,151.5C 117.167,150.833 116.833,150.167 116.5,149.5C 124.281,148.204 132.115,146.537 140,144.5C 140.5,144.667 141,144.833 141.5,145C 140.429,145.852 139.429,146.685 138.5,147.5 Z"/></g>
<g><path style="opacity:1" fill="#646371" d="M 199.5,144.5 C 199.5,147.5 199.5,150.5 199.5,153.5C 196.709,159.269 194.209,165.269 192,171.5C 191.617,170.944 191.117,170.611 190.5,170.5C 186.402,174.087 184.402,178.753 184.5,184.5C 184.92,187.279 185.587,189.945 186.5,192.5C 185.533,191.194 184.199,190.527 182.5,190.5C 182.741,187.001 181.908,186.668 180,189.5C 179.918,192.714 179.751,196.047 179.5,199.5C 177.833,199.5 176.167,199.5 174.5,199.5C 182.021,180.793 190.354,162.459 199.5,144.5 Z"/></g>
<g><path style="opacity:1" fill="#1e1d2b" d="M 185.5,130.5 C 186.124,130.917 186.457,131.584 186.5,132.5C 184.633,141.237 182.466,149.903 180,158.5C 178.893,159.712 178.393,159.379 178.5,157.5C 180.368,148.361 182.701,139.361 185.5,130.5 Z"/></g>
<g><path style="opacity:1" fill="#27232d" d="M 70.5,143.5 C 74.0151,144.092 76.6818,145.925 78.5,149C 82.5239,149.497 86.5239,149.331 90.5,148.5C 91.7079,147.766 93.0413,147.433 94.5,147.5C 101.826,148.217 109.159,148.884 116.5,149.5C 116.833,150.167 117.167,150.833 117.5,151.5C 117.369,152.239 117.536,152.906 118,153.5C 119.812,154.977 121.645,156.31 123.5,157.5C 121.584,159.116 120.084,158.782 119,156.5C 118.15,157.424 117.15,157.424 116,156.5C 113.137,158.576 111.137,161.243 110,164.5C 109.667,163.833 109.333,163.167 109,162.5C 108.009,163.939 106.676,164.939 105,165.5C 104.601,165.272 104.435,164.938 104.5,164.5C 107.31,161.864 110.31,159.364 113.5,157C 106.013,156.795 98.6798,155.628 91.5,153.5C 89.8247,153.868 88.8247,154.868 88.5,156.5C 88.2041,158.403 87.5375,160.07 86.5,161.5C 84.7673,162.008 84.434,162.841 85.5,164C 84.8599,168.268 84.1933,172.435 83.5,176.5C 83.4288,173.258 82.4288,170.425 80.5,168C 81.821,164.066 81.821,160.233 80.5,156.5C 80.2986,152.87 78.632,150.203 75.5,148.5C 74.027,146.605 72.3603,144.939 70.5,143.5 Z"/></g>
<g><path style="opacity:1" fill="#e6d8e0" d="M 138.5,147.5 C 139.5,147.5 140.5,147.5 141.5,147.5C 140.974,149.23 139.974,150.564 138.5,151.5C 137.038,152.458 135.705,153.624 134.5,155C 135,155.167 135.5,155.333 136,155.5C 138.444,154.353 140.777,153.019 143,151.5C 143.16,156.203 141.994,160.536 139.5,164.5C 133.902,162.699 128.569,160.366 123.5,157.5C 121.645,156.31 119.812,154.977 118,153.5C 117.536,152.906 117.369,152.239 117.5,151.5C 124.294,149.781 131.294,148.448 138.5,147.5 Z"/></g>
<g><path style="opacity:1" fill="#b4b2bf" d="M 146.5,164.5 C 145.694,165.728 144.694,166.728 143.5,167.5C 141.856,167.286 140.356,167.62 139,168.5C 138.805,167.181 138.972,165.847 139.5,164.5C 141.994,160.536 143.16,156.203 143,151.5C 140.777,153.019 138.444,154.353 136,155.5C 135.5,155.333 135,155.167 134.5,155C 135.705,153.624 137.038,152.458 138.5,151.5C 138.897,152.525 139.563,152.692 140.5,152C 143.384,150.116 145.551,147.616 147,144.5C 146.313,151.583 144.48,158.416 141.5,165C 143.197,165.384 144.863,165.218 146.5,164.5 Z"/></g>
<g><path style="opacity:1" fill="#796f74" d="M 111.5,150.5 C 114.956,151.536 115.29,153.203 112.5,155.5C 110.296,154.218 109.962,152.551 111.5,150.5 Z"/></g>
<g><path style="opacity:1" fill="#90807f" d="M 34.5,138.5 C 35.5,139.167 36.5,139.833 37.5,140.5C 34.381,148.739 30.7143,156.739 26.5,164.5C 26.1667,165.5 25.5,166.167 24.5,166.5C 27.5575,158.042 31.2241,149.709 35.5,141.5C 35.1373,140.817 34.8039,140.15 34.5,139.5C 34.5,139.167 34.5,138.833 34.5,138.5 Z"/></g>
<g><path style="opacity:1" fill="#c3ada7" d="M 75.5,148.5 C 78.632,150.203 80.2986,152.87 80.5,156.5C 80.665,159.85 80.4983,163.183 80,166.5C 78.2845,163.603 75.7845,162.269 72.5,162.5C 72.9175,161.778 73.5842,161.278 74.5,161C 74.3671,158.266 74.3671,155.599 74.5,153C 75.3081,152.692 75.9747,152.192 76.5,151.5C 75.8728,150.583 75.5394,149.583 75.5,148.5 Z"/></g>
<g><path style="opacity:1" fill="#aeaab4" d="M 104.5,164.5 C 103.5,164.833 102.833,165.5 102.5,166.5C 100.708,166.634 99.0418,166.301 97.5,165.5C 96.8333,165.5 96.5,165.167 96.5,164.5C 99.0878,164.457 101.254,163.457 103,161.5C 103.414,161.957 103.914,162.291 104.5,162.5C 105.583,161.635 105.749,160.635 105,159.5C 103.071,158.821 101.071,157.821 99,156.5C 97.7387,156.759 96.7387,157.426 96,158.5C 94.3333,158.167 92.6667,157.833 91,157.5C 90.6667,158.5 90.3333,159.5 90,160.5C 89.79,158.942 89.29,157.609 88.5,156.5C 88.8247,154.868 89.8247,153.868 91.5,153.5C 98.6798,155.628 106.013,156.795 113.5,157C 110.31,159.364 107.31,161.864 104.5,164.5 Z"/></g>
<g><path style="opacity:1" fill="#c5c3ce" d="M 34.5,139.5 C 34.8039,140.15 35.1373,140.817 35.5,141.5C 31.2241,149.709 27.5575,158.042 24.5,166.5C 23.1363,168.191 21.803,169.858 20.5,171.5C 19.6765,169.545 19.5099,167.545 20,165.5C 24.5598,156.625 29.3932,147.959 34.5,139.5 Z"/></g>
<g><path style="opacity:1" fill="#c0b2b0" d="M 88.5,156.5 C 89.29,157.609 89.79,158.942 90,160.5C 90.3333,159.5 90.6667,158.5 91,157.5C 92.6667,157.833 94.3333,158.167 96,158.5C 96.7387,157.426 97.7387,156.759 99,156.5C 101.071,157.821 103.071,158.821 105,159.5C 105.749,160.635 105.583,161.635 104.5,162.5C 103.914,162.291 103.414,161.957 103,161.5C 101.254,163.457 99.0878,164.457 96.5,164.5C 94.1516,164.33 91.8183,163.997 89.5,163.5C 87.9704,163.36 86.9704,162.693 86.5,161.5C 87.5375,160.07 88.2041,158.403 88.5,156.5 Z"/></g>
<g><path style="opacity:1" fill="#f1dce6" d="M 162.5,156.5 C 164.134,157.207 165.468,158.373 166.5,160C 165.414,172.79 165.414,185.957 166.5,199.5C 157.167,199.5 147.833,199.5 138.5,199.5C 138.5,198.167 138.5,196.833 138.5,195.5C 139.895,191.409 140.562,187.076 140.5,182.5C 145.221,181.823 149.221,179.823 152.5,176.5C 149.785,173.118 146.785,170.118 143.5,167.5C 144.694,166.728 145.694,165.728 146.5,164.5C 149.361,163.393 152.028,162.227 154.5,161C 152.934,162.684 151.934,164.684 151.5,167C 151.85,168.257 152.517,168.591 153.5,168C 157.121,164.559 160.121,160.726 162.5,156.5 Z"/></g>
<g><path style="opacity:1" fill="#edebf1" d="M 199.5,125.5 C 199.5,129.833 199.5,134.167 199.5,138.5C 191.434,155.963 183.101,172.63 174.5,188.5C 174.175,181.458 175.508,174.791 178.5,168.5C 186.324,154.52 193.324,140.186 199.5,125.5 Z"/></g>
<g><path style="opacity:1" fill="#f6f3f6" d="M 29.5,135.5 C 31.4341,136.11 33.1007,137.11 34.5,138.5C 34.5,138.833 34.5,139.167 34.5,139.5C 29.3932,147.959 24.5598,156.625 20,165.5C 19.5099,167.545 19.6765,169.545 20.5,171.5C 18.6923,170.683 17.1923,171.35 16,173.5C 12.5765,182.676 8.40979,191.342 3.5,199.5C 2.16667,199.5 0.833333,199.5 -0.5,199.5C -0.5,198.833 -0.5,198.167 -0.5,197.5C 8.75229,179.328 17.7523,160.995 26.5,142.5C 27.7362,140.351 28.7362,138.018 29.5,135.5 Z"/></g>
<g><path style="opacity:1" fill="#312d34" d="M 177.5,160.5 C 178.473,162.948 178.806,165.615 178.5,168.5C 175.508,174.791 174.175,181.458 174.5,188.5C 173.475,191.974 172.808,195.64 172.5,199.5C 171.833,199.5 171.167,199.5 170.5,199.5C 171.331,186.049 173.664,173.049 177.5,160.5 Z"/></g>
<g><path style="opacity:1" fill="#423638" d="M 45.5,142.5 C 45.1667,143.167 44.8333,143.833 44.5,144.5C 42.2843,145.203 40.451,146.536 39,148.5C 33.7429,155.339 31.7429,163.005 33,171.5C 32.8928,174.592 34.0594,176.925 36.5,178.5C 37.0722,180.255 37.9055,181.922 39,183.5C 41.1238,184.622 42.9571,186.122 44.5,188C 46.556,188.311 48.556,188.811 50.5,189.5C 51.1674,186.358 51.834,183.358 52.5,180.5C 52.5,184.167 52.5,187.833 52.5,191.5C 50.3364,191.721 48.6697,192.721 47.5,194.5C 48.3629,193.06 48.3629,191.726 47.5,190.5C 45.3052,189.231 43.1385,189.231 41,190.5C 39.1121,188.326 36.9455,187.659 34.5,188.5C 33.478,180.25 31.8113,172.25 29.5,164.5C 30.1667,163.5 30.8333,162.5 31.5,161.5C 32.2298,156.706 34.0631,152.373 37,148.5C 39.1775,145.477 42.0108,143.477 45.5,142.5 Z"/></g>
<g><path style="opacity:1" fill="#212130" d="M 123.5,157.5 C 128.569,160.366 133.902,162.699 139.5,164.5C 138.972,165.847 138.805,167.181 139,168.5C 140.356,167.62 141.856,167.286 143.5,167.5C 146.785,170.118 149.785,173.118 152.5,176.5C 149.221,179.823 145.221,181.823 140.5,182.5C 140.562,187.076 139.895,191.409 138.5,195.5C 138.061,191.974 137.894,188.307 138,184.5C 136.841,185.566 136.008,185.233 135.5,183.5C 137.767,182.577 140.1,181.744 142.5,181C 141.167,180.667 139.833,180.333 138.5,180C 141.259,179.441 143.259,177.941 144.5,175.5C 143.05,174.15 142.383,172.484 142.5,170.5C 139.455,170.658 136.621,169.991 134,168.5C 128.559,168.715 122.726,168.882 116.5,169C 112.367,172.131 108.534,175.631 105,179.5C 104.833,179 104.667,178.5 104.5,178C 106.842,174.332 109.842,171.332 113.5,169C 111.223,168.027 109.057,167.86 107,168.5C 106.055,168.095 105.388,167.428 105,166.5C 104.329,167.252 103.496,167.586 102.5,167.5C 102.5,167.167 102.5,166.833 102.5,166.5C 102.833,165.5 103.5,164.833 104.5,164.5C 104.435,164.938 104.601,165.272 105,165.5C 106.676,164.939 108.009,163.939 109,162.5C 109.333,163.167 109.667,163.833 110,164.5C 111.137,161.243 113.137,158.576 116,156.5C 117.15,157.424 118.15,157.424 119,156.5C 120.084,158.782 121.584,159.116 123.5,157.5 Z"/></g>
<g><path style="opacity:1" fill="#8d7265" d="M 80.5,156.5 C 81.821,160.233 81.821,164.066 80.5,168C 82.4288,170.425 83.4288,173.258 83.5,176.5C 80.8993,175.021 78.066,174.021 75,173.5C 68.817,174.588 62.6503,175.754 56.5,177C 54.9733,178.032 53.64,179.199 52.5,180.5C 51.834,183.358 51.1674,186.358 50.5,189.5C 48.556,188.811 46.556,188.311 44.5,188C 42.9571,186.122 41.1238,184.622 39,183.5C 37.9055,181.922 37.0722,180.255 36.5,178.5C 43.2066,178.548 49.8733,177.381 56.5,175C 62.9312,172.034 67.5979,167.868 70.5,162.5C 71.1667,162.5 71.8333,162.5 72.5,162.5C 75.7845,162.269 78.2845,163.603 80,166.5C 80.4983,163.183 80.665,159.85 80.5,156.5 Z"/></g>
<g><path style="opacity:1" fill="#3f445d" d="M 29.5,164.5 C 31.8113,172.25 33.478,180.25 34.5,188.5C 33.2978,192.048 32.6311,195.715 32.5,199.5C 31.8333,199.5 31.1667,199.5 30.5,199.5C 31.4522,191.059 29.9522,182.726 26,174.5C 25.3292,173.748 24.4959,173.414 23.5,173.5C 23.3893,172.883 23.056,172.383 22.5,172C 24.7277,169.277 27.061,166.777 29.5,164.5 Z"/></g>
<g><path style="opacity:1" fill="#42465a" d="M 135.5,183.5 C 124.124,187.684 112.457,190.518 100.5,192C 99.1955,191.196 98.5288,190.029 98.5,188.5C 100.393,186.048 101.726,183.381 102.5,180.5C 103.776,179.614 103.776,178.614 102.5,177.5C 101.707,177.931 100.873,178.265 100,178.5C 97.9534,177.391 95.7867,176.724 93.5,176.5C 96.8062,173.86 99.8062,170.86 102.5,167.5C 103.496,167.586 104.329,167.252 105,166.5C 105.388,167.428 106.055,168.095 107,168.5C 109.057,167.86 111.223,168.027 113.5,169C 109.842,171.332 106.842,174.332 104.5,178C 104.667,178.5 104.833,179 105,179.5C 108.534,175.631 112.367,172.131 116.5,169C 122.726,168.882 128.559,168.715 134,168.5C 136.621,169.991 139.455,170.658 142.5,170.5C 142.383,172.484 143.05,174.15 144.5,175.5C 143.259,177.941 141.259,179.441 138.5,180C 139.833,180.333 141.167,180.667 142.5,181C 140.1,181.744 137.767,182.577 135.5,183.5 Z"/></g>
<g><path style="opacity:1" fill="#404154" d="M 97.5,165.5 C 99.0418,166.301 100.708,166.634 102.5,166.5C 102.5,166.833 102.5,167.167 102.5,167.5C 101.448,167.351 100.448,167.517 99.5,168C 95.618,172.183 91.4514,176.016 87,179.5C 85.515,175.72 85.3483,172.054 86.5,168.5C 86.238,167.022 86.5713,165.689 87.5,164.5C 90.5,165.167 93.5,165.833 96.5,166.5C 97.1067,166.376 97.44,166.043 97.5,165.5 Z"/></g>
<g><path style="opacity:1" fill="#bab9c8" d="M 86.5,168.5 C 91.0087,165.148 93.1754,166.148 93,171.5C 89.4317,173.97 87.265,172.97 86.5,168.5 Z"/></g>
<g><path style="opacity:1" fill="#e8cdac" d="M 199.5,157.5 C 199.5,163.833 199.5,170.167 199.5,176.5C 198.732,175.737 198.232,174.737 198,173.5C 196.196,175.981 194.696,175.981 193.5,173.5C 195.151,167.915 197.151,162.582 199.5,157.5 Z"/></g>
<g><path style="opacity:1" fill="#665553" d="M 25.5,141.5 C 26.1667,141.5 26.5,141.833 26.5,142.5C 17.7523,160.995 8.75229,179.328 -0.5,197.5C -0.5,196.167 -0.5,194.833 -0.5,193.5C 1.80961,190.898 3.64294,187.898 5,184.5C 7.89792,177.039 11.0646,169.706 14.5,162.5C 18.7082,155.95 22.3749,148.95 25.5,141.5 Z"/></g>
<g><path style="opacity:1" fill="#5975c8" d="M 23.5,173.5 C 24.4959,173.414 25.3292,173.748 26,174.5C 29.9522,182.726 31.4522,191.059 30.5,199.5C 29.1667,199.5 27.8333,199.5 26.5,199.5C 23.1965,193.797 21.1965,187.63 20.5,181C 20.7888,178.213 21.7888,175.713 23.5,173.5 Z"/></g>
<g><path style="opacity:1" fill="#c4c3d1" d="M 199.5,138.5 C 199.5,140.5 199.5,142.5 199.5,144.5C 190.354,162.459 182.021,180.793 174.5,199.5C 173.833,199.5 173.167,199.5 172.5,199.5C 172.808,195.64 173.475,191.974 174.5,188.5C 183.101,172.63 191.434,155.963 199.5,138.5 Z"/></g>
<g><path style="opacity:1" fill="#bfc0cf" d="M 190.5,170.5 C 191.412,180.304 193.078,189.971 195.5,199.5C 193.167,199.5 190.833,199.5 188.5,199.5C 187.681,197.228 187.015,194.894 186.5,192.5C 185.587,189.945 184.92,187.279 184.5,184.5C 184.402,178.753 186.402,174.087 190.5,170.5 Z"/></g>
<g><path style="opacity:1" fill="#b99986" d="M 193.5,173.5 C 194.696,175.981 196.196,175.981 198,173.5C 198.232,174.737 198.732,175.737 199.5,176.5C 199.5,184.167 199.5,191.833 199.5,199.5C 198.833,199.5 198.167,199.5 197.5,199.5C 194.83,190.833 193.497,182.166 193.5,173.5 Z"/></g>
<g><path style="opacity:1" fill="#7f8193" d="M 93.5,176.5 C 95.7867,176.724 97.9534,177.391 100,178.5C 100.873,178.265 101.707,177.931 102.5,177.5C 103.776,178.614 103.776,179.614 102.5,180.5C 102.167,180.5 101.833,180.5 101.5,180.5C 99.2655,180.38 97.0989,180.713 95,181.5C 94.3643,180.239 93.1976,178.906 91.5,177.5C 92.1667,177.167 92.8333,176.833 93.5,176.5 Z"/></g>
<g><path style="opacity:1" fill="#1e1f30" d="M 31.5,161.5 C 30.8333,162.5 30.1667,163.5 29.5,164.5C 27.061,166.777 24.7277,169.277 22.5,172C 23.056,172.383 23.3893,172.883 23.5,173.5C 21.7888,175.713 20.7888,178.213 20.5,181C 21.1965,187.63 23.1965,193.797 26.5,199.5C 25.8333,199.5 25.1667,199.5 24.5,199.5C 22.8506,196.544 21.5173,193.544 20.5,190.5C 20.1667,189.167 19.8333,187.833 19.5,186.5C 19.4921,183.455 19.1587,180.455 18.5,177.5C 19.4582,175.698 20.1249,173.698 20.5,171.5C 21.803,169.858 23.1363,168.191 24.5,166.5C 25.5,166.167 26.1667,165.5 26.5,164.5C 27.922,163.075 29.5887,162.075 31.5,161.5 Z"/></g>
<g><path style="opacity:1" fill="#33364b" d="M 91.5,177.5 C 93.1976,178.906 94.3643,180.239 95,181.5C 97.0989,180.713 99.2655,180.38 101.5,180.5C 100.319,182.067 98.6526,182.901 96.5,183C 97.5,183.333 98.5,183.667 99.5,184C 98.1095,185.02 96.6095,185.853 95,186.5C 92.0719,185.24 90.2386,183.073 89.5,180C 90.0659,179.005 90.7326,178.172 91.5,177.5 Z"/></g>
<g><path style="opacity:1" fill="#504142" d="M 199.5,153.5 C 199.5,154.833 199.5,156.167 199.5,157.5C 197.151,162.582 195.151,167.915 193.5,173.5C 193.497,182.166 194.83,190.833 197.5,199.5C 196.833,199.5 196.167,199.5 195.5,199.5C 193.078,189.971 191.412,180.304 190.5,170.5C 191.117,170.611 191.617,170.944 192,171.5C 194.209,165.269 196.709,159.269 199.5,153.5 Z"/></g>
<g><path style="opacity:1" fill="#bfbfcf" d="M 20.5,171.5 C 20.1249,173.698 19.4582,175.698 18.5,177.5C 14.663,184.514 11.3297,191.847 8.5,199.5C 6.83333,199.5 5.16667,199.5 3.5,199.5C 8.40979,191.342 12.5765,182.676 16,173.5C 17.1923,171.35 18.6923,170.683 20.5,171.5 Z"/></g>
<g><path style="opacity:1" fill="#ead1b3" d="M 19.5,186.5 C 19.8333,187.833 20.1667,189.167 20.5,190.5C 19.9769,193.878 18.6435,196.878 16.5,199.5C 14.5,199.5 12.5,199.5 10.5,199.5C 12.4383,193.62 14.9383,187.953 18,182.5C 18.21,184.058 18.71,185.391 19.5,186.5 Z"/></g>
<g><path style="opacity:1" fill="#433f4c" d="M 186.5,192.5 C 187.015,194.894 187.681,197.228 188.5,199.5C 187.833,199.5 187.167,199.5 186.5,199.5C 185.167,192.835 183.834,192.835 182.5,199.5C 181.5,199.5 180.5,199.5 179.5,199.5C 179.751,196.047 179.918,192.714 180,189.5C 181.908,186.668 182.741,187.001 182.5,190.5C 184.199,190.527 185.533,191.194 186.5,192.5 Z"/></g>
<g><path style="opacity:1" fill="#877c80" d="M 18.5,177.5 C 19.1587,180.455 19.4921,183.455 19.5,186.5C 18.71,185.391 18.21,184.058 18,182.5C 14.9383,187.953 12.4383,193.62 10.5,199.5C 9.83333,199.5 9.16667,199.5 8.5,199.5C 11.3297,191.847 14.663,184.514 18.5,177.5 Z"/></g>
<g><path style="opacity:1" fill="#161828" d="M 47.5,194.5 C 46.1103,195.899 45.1103,197.566 44.5,199.5C 40.5,199.5 36.5,199.5 32.5,199.5C 32.6311,195.715 33.2978,192.048 34.5,188.5C 36.9455,187.659 39.1121,188.326 41,190.5C 43.1385,189.231 45.3052,189.231 47.5,190.5C 48.3629,191.726 48.3629,193.06 47.5,194.5 Z"/></g>
<g><path style="opacity:1" fill="#151726" d="M 86.5,161.5 C 86.9704,162.693 87.9704,163.36 89.5,163.5C 91.8183,163.997 94.1516,164.33 96.5,164.5C 96.5,165.167 96.8333,165.5 97.5,165.5C 97.44,166.043 97.1067,166.376 96.5,166.5C 93.5,165.833 90.5,165.167 87.5,164.5C 86.5713,165.689 86.238,167.022 86.5,168.5C 85.3483,172.054 85.515,175.72 87,179.5C 91.4514,176.016 95.618,172.183 99.5,168C 100.448,167.517 101.448,167.351 102.5,167.5C 99.8062,170.86 96.8062,173.86 93.5,176.5C 92.8333,176.833 92.1667,177.167 91.5,177.5C 90.7326,178.172 90.0659,179.005 89.5,180C 90.2386,183.073 92.0719,185.24 95,186.5C 96.6095,185.853 98.1095,185.02 99.5,184C 98.5,183.667 97.5,183.333 96.5,183C 98.6526,182.901 100.319,182.067 101.5,180.5C 101.833,180.5 102.167,180.5 102.5,180.5C 101.726,183.381 100.393,186.048 98.5,188.5C 98.5288,190.029 99.1955,191.196 100.5,192C 112.457,190.518 124.124,187.684 135.5,183.5C 136.008,185.233 136.841,185.566 138,184.5C 137.894,188.307 138.061,191.974 138.5,195.5C 138.5,196.833 138.5,198.167 138.5,199.5C 137.167,199.5 135.833,199.5 134.5,199.5C 136.233,189.037 132.233,185.537 122.5,189C 118.172,190.829 114.172,193.162 110.5,196C 113.5,196.333 116.5,196.667 119.5,197C 120.571,197.852 121.571,198.685 122.5,199.5C 117.5,199.5 112.5,199.5 107.5,199.5C 98.0646,191.907 88.7312,184.074 79.5,176C 76.5,175.333 73.5,175.333 70.5,176C 67.9647,183.787 67.9647,191.621 70.5,199.5C 69.8333,199.5 69.1667,199.5 68.5,199.5C 67.3366,191.945 67.3366,184.445 68.5,177C 63.0461,177.077 58.2128,178.91 54,182.5C 52.9961,188.48 53.8294,194.146 56.5,199.5C 55.8333,199.5 55.1667,199.5 54.5,199.5C 53.8333,196.833 53.1667,194.167 52.5,191.5C 52.5,187.833 52.5,184.167 52.5,180.5C 53.64,179.199 54.9733,178.032 56.5,177C 62.6503,175.754 68.817,174.588 75,173.5C 78.066,174.021 80.8993,175.021 83.5,176.5C 84.1933,172.435 84.8599,168.268 85.5,164C 84.434,162.841 84.7673,162.008 86.5,161.5 Z"/></g>
<g><path style="opacity:1" fill="#43485d" d="M 134.5,199.5 C 130.5,199.5 126.5,199.5 122.5,199.5C 121.571,198.685 120.571,197.852 119.5,197C 116.5,196.667 113.5,196.333 110.5,196C 114.172,193.162 118.172,190.829 122.5,189C 132.233,185.537 136.233,189.037 134.5,199.5 Z"/></g>
<g><path style="opacity:1" fill="#42455a" d="M 68.5,199.5 C 64.5,199.5 60.5,199.5 56.5,199.5C 53.8294,194.146 52.9961,188.48 54,182.5C 58.2128,178.91 63.0461,177.077 68.5,177C 67.3366,184.445 67.3366,191.945 68.5,199.5 Z"/></g>
<g><path style="opacity:1" fill="#464c63" d="M 107.5,199.5 C 95.1667,199.5 82.8333,199.5 70.5,199.5C 67.9647,191.621 67.9647,183.787 70.5,176C 73.5,175.333 76.5,175.333 79.5,176C 88.7312,184.074 98.0646,191.907 107.5,199.5 Z"/></g>
<g><path style="opacity:1" fill="#404254" d="M 89.5,167.5 C 91.1765,168.183 91.8432,169.517 91.5,171.5C 90.5,171.5 89.5,171.5 88.5,171.5C 88.4326,170.041 88.7659,168.708 89.5,167.5 Z"/></g>
<g><path style="opacity:1" fill="#3a3e55" d="M 52.5,191.5 C 53.1667,194.167 53.8333,196.833 54.5,199.5C 51.1667,199.5 47.8333,199.5 44.5,199.5C 45.1103,197.566 46.1103,195.899 47.5,194.5C 48.6697,192.721 50.3364,191.721 52.5,191.5 Z"/></g>
<g><path style="opacity:1" fill="#605b67" d="M 20.5,190.5 C 21.5173,193.544 22.8506,196.544 24.5,199.5C 21.8333,199.5 19.1667,199.5 16.5,199.5C 18.6435,196.878 19.9769,193.878 20.5,190.5 Z"/></g>
<g><path style="opacity:1" fill="#a48775" d="M 186.5,199.5 C 185.167,199.5 183.833,199.5 182.5,199.5C 183.834,192.835 185.167,192.835 186.5,199.5 Z"/></g>
</svg>
